<?xml version="1.0" encoding="utf-8"?>
<!-- Generator: Adobe Illustrator 16.0.0, SVG Export Plug-In . SVG Version: 6.00 Build 0)  -->
<!DOCTYPE svg PUBLIC "-//W3C//DTD SVG 1.1//EN" "http://www.w3.org/Graphics/SVG/1.1/DTD/svg11.dtd">
<svg version="1.1" id="Layer_1" xmlns="http://www.w3.org/2000/svg" xmlns:xlink="http://www.w3.org/1999/xlink" x="0px" y="0px"
	 width="155.25px" height="142px" viewBox="0 0 155.25 142" enable-background="new 0 0 155.25 142" xml:space="preserve">
<path d="M12.005,41.519l-7.68,5.934l9.538,2.989L12.005,41.519z"/>
<g>
	<path d="M24.658,12.256l0.586-2.393c3.714-0.26,7.721-0.912,12.021-1.955c-1.138,3.357-1.966,6.062-2.486,8.115l-2.631,10.902
		c5.756,0,10.088-1.441,12.998-4.325c2.91-2.883,4.366-6.313,4.366-10.287c0-2.769-1.05-5-3.149-6.695
		c-2.1-1.694-5.233-2.542-9.399-2.542c-5.892,0-11.507,1.401-16.846,4.204c-5.339,2.803-9.497,6.461-12.476,10.974
		c-2.979,4.514-4.468,9.036-4.468,13.565c0,1.239,0.171,2.387,0.513,3.446s0.838,2.029,1.489,2.909
		c0.391,0.521,1.253,1.238,2.588,2.15c1.497,1.044,2.425,1.817,2.783,2.323c0.358,0.505,0.537,1.1,0.537,1.784
		c0,0.685-0.252,1.279-0.757,1.784s-1.115,0.758-1.831,0.758c-1.855,0-3.735-1.352-5.64-4.057C0.951,40.211,0,36.871,0,32.895
		c0-5.474,1.636-10.777,4.907-15.909S12.809,7.74,18.799,4.644C24.788,1.548,31.38,0,38.574,0c5.859,0,10.311,1.157,13.354,3.47
		c3.043,2.313,4.565,5.131,4.565,8.454c0,3.16-1.025,6.035-3.076,8.624c-2.051,2.59-5.16,4.585-9.326,5.986
		c2.864,0.455,5.127,1.228,6.787,2.318c1.66,1.09,2.938,2.465,3.833,4.124c0.895,1.659,1.343,3.562,1.343,5.709
		c0,3.514-1.034,6.84-3.101,9.98c-2.067,3.14-5.111,5.742-9.131,7.808c-4.021,2.066-8.211,3.098-12.573,3.098
		c-1.27,0-3.988-0.13-8.154-0.391c-1.986-0.098-4.069-0.146-6.25-0.146c-3.32,0-6.267,0.26-8.838,0.781l0.732-2.686
		c3.418-0.194,5.851-1.013,7.3-2.457c1.448-1.444,2.808-4.63,4.077-9.561l7.227-28.379c0.293-1.213,0.439-2.131,0.439-2.754
		c0-0.491-0.204-0.926-0.61-1.303c-0.407-0.376-0.92-0.566-1.538-0.566C25.374,12.109,25.049,12.158,24.658,12.256z M31.368,29.857
		l-2.485,9.826c-1.268,5.084-2.486,8.995-3.655,11.732c-0.693,1.628-1.582,3.011-2.669,4.15c2.93,0.716,5.452,1.074,7.568,1.074
		c5.696,0,10.001-1.759,12.915-5.278c2.913-3.519,4.37-7.446,4.37-11.779c0-2.15-0.545-3.999-1.634-5.547
		c-1.089-1.547-2.52-2.63-4.292-3.25C39.715,30.167,36.342,29.857,31.368,29.857z"/>
</g>
</svg>
